<?xml version="1.0" standalone="no"?>
<!DOCTYPE svg PUBLIC "-//W3C//DTD SVG 20010904//EN"
 "http://www.w3.org/TR/2001/REC-SVG-20010904/DTD/svg10.dtd">
<svg version="1.0" xmlns="http://www.w3.org/2000/svg"
 width="3840.000000pt" height="3840.000000pt" viewBox="0 0 3840.000000 3840.000000"
 preserveAspectRatio="xMidYMid meet">
<metadata>
Created by potrace 1.14, written by Peter Selinger 2001-2017
</metadata>
<g transform="translate(0.000000,3840.000000) scale(0.100000,-0.100000)"
fill="#000000" stroke="none">
<path d="M0 19200 l0 -19200 19200 0 19200 0 0 19200 0 19200 -19200 0 -19200
0 0 -19200z m19995 10470 c3913 -69 7085 -529 8350 -1213 223 -121 396 -239
486 -334 77 -80 229 -273 253 -322 37 -73 117 -271 132 -326 18 -67 18 -377 0
-461 -36 -169 -273 -479 -496 -649 -77 -58 -82 -65 -67 -84 10 -12 9 -13 -3
-6 -13 7 -13 6 -2 -7 7 -8 9 -24 5 -33 -4 -12 -3 -16 4 -12 7 5 9 0 6 -13 -3
-11 -9 -20 -13 -20 -4 0 -11 -10 -14 -22 -3 -13 -24 -43 -46 -67 -21 -24 -38
-47 -37 -50 1 -3 -4 -16 -11 -27 -6 -12 -8 -24 -5 -28 3 -3 1 -6 -4 -6 -12 0
-12 -25 -1 -36 4 -3 4 -12 1 -20 -3 -8 -1 -14 4 -14 7 0 10 -65 4 -80 -4 -8
-9 -33 -16 -75 -3 -22 -18 -80 -31 -130 -14 -49 -26 -94 -28 -100 -1 -5 -11
-37 -21 -70 -10 -33 -20 -64 -21 -70 -2 -5 -12 -39 -22 -75 -11 -36 -36 -119
-56 -185 -19 -66 -49 -165 -67 -220 -17 -55 -35 -113 -39 -130 -8 -31 -147
-461 -365 -1130 -69 -209 -147 -461 -174 -560 -27 -99 -145 -524 -261 -945
-116 -421 -258 -936 -316 -1145 -58 -209 -127 -459 -154 -555 -27 -96 -62
-224 -79 -285 -16 -60 -82 -299 -146 -530 -64 -231 -199 -719 -300 -1085 -448
-1619 -503 -1817 -670 -2405 -30 -104 -88 -311 -130 -460 -42 -148 -80 -283
-86 -300 -5 -16 -27 -95 -50 -175 -22 -80 -62 -221 -89 -315 -106 -369 -201
-701 -205 -715 -2 -8 -42 -150 -90 -315 -48 -165 -89 -309 -92 -320 -3 -11
-15 -54 -28 -95 -12 -41 -27 -93 -33 -115 -6 -22 -15 -51 -19 -65 -4 -14 -6
-28 -5 -32 1 -5 -3 -8 -10 -8 -6 0 -9 -3 -5 -6 3 -3 -1 -23 -8 -45 -8 -21 -12
-39 -9 -39 3 0 2 -6 -2 -12 -5 -7 -9 -19 -10 -28 -4 -33 -46 -165 -56 -177 -5
-7 -11 -27 -13 -45 -2 -18 -20 -85 -40 -148 -31 -98 -43 -140 -59 -205 -2 -5
-6 -17 -9 -25 -16 -43 -78 -267 -78 -282 0 -10 -4 -18 -7 -18 -4 0 -9 -14 -10
-32 -2 -17 -7 -37 -13 -44 -5 -6 -12 -23 -14 -35 -6 -33 -26 -111 -33 -129 -9
-24 -45 -144 -56 -190 -2 -8 -16 -51 -31 -95 -14 -44 -27 -87 -29 -95 -2 -8
-5 -22 -9 -30 -9 -25 -34 -112 -47 -165 -6 -27 -15 -59 -20 -70 -4 -11 -13
-40 -20 -65 -7 -25 -17 -58 -23 -74 -10 -27 -14 -44 -19 -83 -1 -7 -5 -13 -10
-13 -4 0 -8 -8 -8 -18 0 -43 -61 -190 -152 -367 -11 -22 -36 -71 -56 -110 -20
-38 -40 -73 -45 -76 -5 -3 -8 -10 -8 -15 1 -12 -42 -98 -51 -102 -5 -2 -8 -8
-8 -14 0 -6 -12 -26 -26 -45 -14 -19 -27 -40 -28 -46 -2 -13 -39 -75 -54 -93
-20 -23 -60 -102 -55 -108 4 -3 0 -6 -8 -6 -8 0 -28 -25 -44 -55 -17 -30 -34
-55 -38 -55 -5 0 -5 -4 -2 -10 3 -5 2 -10 -3 -10 -5 0 -15 -12 -23 -27 -8 -15
-22 -37 -32 -48 -10 -11 -26 -29 -35 -39 -9 -11 -11 -16 -5 -12 9 5 11 2 7 -8
-3 -9 -12 -16 -19 -16 -7 0 -18 -12 -23 -28 -6 -15 -31 -49 -56 -77 -25 -27
-53 -67 -63 -87 -10 -21 -26 -41 -36 -44 -10 -3 -16 -8 -14 -10 5 -6 -24 -44
-66 -85 -16 -16 -26 -33 -23 -38 3 -5 -4 -11 -15 -14 -14 -4 -18 -10 -13 -18
5 -9 2 -10 -9 -6 -12 4 -18 0 -23 -17 -3 -14 -19 -36 -35 -51 -16 -14 -27 -31
-23 -37 5 -8 0 -9 -16 -5 -16 4 -20 3 -12 -5 8 -8 4 -17 -16 -32 -15 -12 -31
-20 -37 -18 -5 2 -7 0 -3 -4 4 -4 0 -13 -10 -21 -9 -8 -11 -12 -5 -8 9 4 11 1
7 -10 -4 -9 -13 -13 -24 -10 -12 4 -19 -1 -23 -16 -3 -12 -10 -18 -17 -14 -6
3 -10 3 -9 -2 4 -23 -3 -33 -23 -33 -19 0 -20 -2 -8 -10 13 -8 13 -10 -1 -10
-9 0 -21 -10 -27 -22 -6 -13 -11 -17 -11 -11 -1 8 -11 4 -26 -9 -14 -12 -23
-28 -20 -36 2 -7 1 -10 -4 -7 -5 3 -12 1 -16 -5 -4 -6 -11 -7 -17 -4 -7 4 -8
2 -4 -5 4 -6 1 -14 -8 -17 -8 -3 -18 -14 -21 -24 -3 -10 -13 -21 -23 -24 -38
-15 -59 -30 -68 -50 -5 -12 -15 -20 -22 -18 -14 3 -49 -28 -43 -37 2 -3 -6
-11 -18 -17 -11 -6 -18 -14 -14 -17 3 -4 -1 -7 -11 -7 -11 0 -14 -4 -10 -12 5
-8 2 -9 -9 -5 -11 4 -17 1 -17 -6 0 -14 -52 -57 -69 -57 -5 0 -11 -7 -15 -15
-3 -9 -12 -12 -21 -9 -11 5 -18 0 -22 -15 -3 -12 -10 -21 -17 -20 -35 4 -46
-2 -46 -27 0 -14 -4 -23 -10 -19 -5 3 -15 3 -21 -1 -8 -4 -7 -9 2 -15 11 -7 9
-9 -6 -10 -11 -1 -27 -3 -35 -3 -8 -1 -14 -9 -14 -17 1 -11 -6 -15 -23 -13
-19 2 -23 -1 -19 -13 6 -14 4 -14 -10 -2 -16 13 -16 12 -4 -11 11 -21 11 -23
-1 -14 -18 13 -44 12 -44 -3 0 -6 -3 -15 -7 -19 -5 -4 -8 -2 -8 4 0 7 -4 12
-10 12 -5 0 -9 -3 -9 -7 1 -5 1 -15 0 -23 -1 -13 -2 -13 -11 0 -8 13 -10 12
-10 -3 0 -10 -4 -16 -8 -13 -5 3 -14 -4 -22 -14 -8 -10 -17 -17 -22 -14 -4 3
-8 -2 -8 -11 0 -9 -4 -13 -10 -10 -5 3 -10 0 -11 -7 0 -10 -2 -11 -6 0 -4 10
-8 10 -21 0 -12 -10 -14 -10 -8 0 17 28 -6 10 -25 -20 -12 -18 -19 -25 -16
-16 4 12 2 15 -8 11 -8 -3 -12 -10 -9 -15 4 -6 -1 -8 -14 -4 -15 5 -22 2 -26
-11 -4 -14 -15 -18 -41 -18 -23 1 -35 -3 -35 -12 0 -7 -5 -13 -11 -13 -5 0 -7
-5 -4 -11 4 -6 1 -10 -6 -8 -32 4 -60 -2 -54 -11 3 -5 -1 -10 -9 -10 -9 0 -16
-5 -16 -11 0 -7 -10 -9 -24 -7 -16 3 -23 1 -19 -8 2 -6 -1 -15 -8 -20 -8 -4
-10 -3 -5 4 4 7 2 12 -3 12 -6 0 -11 -5 -11 -11 0 -8 -5 -8 -15 1 -14 12 -20
4 -16 -22 0 -4 -8 -5 -18 -3 -11 2 -27 -3 -38 -10 -10 -8 -22 -14 -28 -15 -5
0 4 9 20 20 17 11 25 20 19 20 -6 0 -23 -11 -37 -24 -44 -41 -59 -46 -75 -28
-7 10 -11 11 -7 5 3 -7 3 -13 -2 -14 -4 -1 -20 -2 -36 -3 -27 -3 -51 -16 -29
-16 7 0 12 -5 12 -11 0 -6 -9 -8 -21 -4 -13 5 -19 3 -15 -3 8 -13 -26 -10 -37
3 -5 6 -7 0 -4 -12 4 -18 2 -21 -11 -15 -26 13 -47 8 -46 -9 1 -9 -8 -16 -22
-17 -13 -1 -24 3 -24 10 0 6 -9 0 -20 -13 -18 -20 -24 -22 -42 -10 -15 9 -18
9 -12 0 5 -9 1 -11 -15 -6 -15 3 -24 0 -28 -10 -3 -8 -13 -13 -25 -10 -10 3
-25 -1 -33 -9 -8 -9 -16 -10 -20 -4 -10 16 -23 12 -30 -9 -3 -11 -13 -22 -22
-25 -14 -6 -14 -4 -2 10 13 16 12 16 -8 5 -13 -6 -23 -9 -23 -5 0 3 -7 1 -15
-6 -8 -7 -15 -9 -15 -5 0 4 -8 1 -17 -6 -14 -12 -16 -12 -11 1 4 11 -1 16 -15
18 -18 1 -19 -1 -7 -9 12 -9 10 -10 -7 -6 -13 3 -26 0 -30 -5 -4 -7 -1 -8 7
-3 8 5 11 4 7 -2 -9 -15 -57 -23 -57 -10 0 6 -6 3 -13 -8 -11 -14 -16 -15 -22
-5 -5 8 -4 11 3 6 12 -7 10 20 -3 31 -4 4 -5 3 -2 -3 10 -18 -14 -32 -51 -30
-19 0 -36 -2 -39 -7 -2 -4 -9 -5 -14 -2 -5 4 -9 1 -9 -6 0 -7 -3 -9 -7 -6 -3
4 -12 -1 -20 -11 -8 -9 -12 -11 -8 -4 3 6 1 12 -5 12 -6 0 -8 4 -5 10 3 5 2
10 -4 10 -5 0 -11 -10 -13 -22 -3 -21 -4 -21 -20 -4 -17 17 -18 17 -18 -1 0
-14 -2 -15 -9 -4 -6 9 -16 11 -32 5 -13 -4 -31 -7 -41 -5 -9 1 -19 -3 -23 -9
-3 -5 -12 -10 -18 -10 -8 0 -7 4 2 9 8 5 16 17 17 25 1 9 -2 14 -7 10 -5 -3
-7 -9 -4 -13 9 -15 -40 -30 -60 -18 -14 7 -20 7 -23 -2 -3 -9 -8 -9 -20 1 -12
10 -14 10 -8 1 4 -7 3 -13 -3 -13 -5 0 -12 4 -15 9 -8 12 -41 7 -41 -7 0 -6
-4 -14 -9 -19 -5 -4 -6 -3 -3 4 9 15 -13 22 -40 12 -12 -4 -32 -6 -44 -4 -12
3 -28 0 -35 -6 -7 -6 -19 -7 -25 -3 -9 5 -10 2 -6 -10 4 -10 3 -15 -4 -11 -5
4 -7 14 -5 23 5 14 -2 17 -31 19 -27 2 -33 -1 -23 -7 8 -5 10 -10 4 -10 -5 0
-16 6 -23 13 -8 7 -11 7 -8 1 4 -7 -3 -14 -19 -17 -20 -3 -24 -1 -19 12 5 13
4 14 -6 4 -19 -19 -29 -16 -30 10 0 15 -2 17 -6 7 -3 -8 -11 -18 -16 -22 -11
-6 -78 -4 -93 4 -5 2 -15 3 -21 2 -7 -1 -18 -2 -24 -3 -5 0 -7 -7 -3 -14 5 -9
3 -9 -7 1 -12 11 -12 14 1 22 11 7 11 10 2 10 -7 0 -10 5 -6 12 4 7 3 8 -5 4
-6 -4 -9 -11 -6 -16 11 -18 -17 -21 -31 -4 -9 11 -13 13 -9 7 8 -16 -10 -17
-37 -2 -18 10 -20 9 -15 -5 4 -10 3 -15 -3 -11 -6 3 -10 14 -10 23 0 14 -2 13
-13 -3 -10 -13 -16 -15 -21 -6 -4 6 -11 9 -16 6 -5 -3 -18 -1 -29 5 -14 7 -22
7 -27 -2 -4 -6 -3 -8 4 -4 6 3 13 2 16 -2 3 -5 -11 -7 -32 -5 -20 2 -46 5 -57
5 -11 1 -23 6 -27 12 -4 6 -11 6 -20 -2 -10 -7 -18 -8 -28 0 -12 8 -12 9 3 4
9 -3 17 -2 17 2 0 11 -70 30 -76 20 -3 -5 0 -7 7 -6 6 2 14 -3 16 -10 4 -11 1
-12 -17 -2 -18 10 -24 9 -31 -1 -6 -10 -9 -11 -9 -1 0 6 -7 12 -15 12 -8 0
-15 5 -15 12 0 6 -3 9 -6 5 -3 -3 -17 -2 -30 3 -15 6 -26 6 -30 -1 -4 -7 -10
-6 -19 1 -8 7 -19 9 -25 5 -5 -3 -10 -1 -10 4 0 6 6 11 13 11 6 0 4 5 -6 11
-14 8 -24 6 -43 -6 -14 -9 -28 -14 -32 -11 -3 3 0 6 7 6 7 0 10 4 7 9 -3 4
-16 8 -28 7 -13 -1 -25 2 -28 6 -3 4 -25 9 -48 10 -23 2 -42 7 -42 11 0 5 -6
5 -12 0 -22 -13 -36 -12 -42 4 -3 8 -10 11 -16 8 -5 -3 -10 -1 -10 6 0 6 -8 9
-20 6 -11 -3 -20 -1 -20 4 0 5 -5 9 -11 9 -6 0 -7 -6 -2 -12 4 -7 -5 -5 -20 5
-15 9 -27 14 -27 11 0 -4 -10 1 -22 12 -12 10 -19 14 -15 8 4 -7 -2 -11 -16
-10 -15 1 -21 7 -19 19 4 21 -1 21 -41 1 -21 -11 -28 -12 -19 -3 15 16 16 33
1 23 -6 -3 -15 0 -20 7 -6 10 -9 11 -9 2 0 -7 -5 -13 -11 -13 -5 0 -7 5 -3 11
4 8 -1 9 -16 4 -19 -6 -22 -4 -17 9 4 11 -1 18 -16 22 -13 3 -27 4 -33 2 -15
-5 -95 32 -90 41 3 5 -10 8 -30 6 -21 -2 -37 1 -40 8 -2 7 -18 12 -34 13 -18
1 -38 11 -50 25 -20 22 -20 22 -11 2 14 -27 14 -44 0 -21 -5 10 -16 15 -24 12
-17 -7 -20 7 -5 22 8 8 6 15 -6 25 -13 10 -16 10 -10 1 12 -19 -1 -47 -17 -34
-6 5 -20 8 -30 7 -9 -2 -15 0 -12 5 3 5 -1 11 -7 14 -7 2 -4 4 7 3 11 -2 26
-6 33 -10 7 -5 12 -4 12 2 0 10 -14 15 -32 12 -5 0 -8 3 -8 7 0 5 -14 9 -32
10 -17 0 -34 6 -39 13 -4 6 -15 9 -24 5 -13 -4 -16 -2 -11 9 3 8 1 15 -4 15
-6 0 -10 -5 -10 -11 0 -5 -5 -7 -10 -4 -6 4 -7 12 -3 18 4 8 1 7 -9 -1 -13
-10 -18 -10 -24 -1 -4 8 -3 9 4 5 7 -4 12 -3 12 2 0 9 -41 21 -86 25 -15 1
-21 8 -18 20 1 10 -1 15 -7 11 -6 -3 -17 2 -25 12 -13 18 -14 18 -8 -1 6 -19
5 -19 -13 1 -10 11 -23 19 -29 17 -6 -2 -23 8 -38 22 -33 31 -39 31 -31 3 5
-16 0 -12 -17 12 -18 26 -31 35 -53 36 -21 0 -30 5 -29 16 1 11 -6 15 -23 13
-16 -2 -23 2 -19 11 3 7 -3 18 -12 26 -15 12 -16 11 -3 -4 9 -13 10 -18 2 -18
-7 0 -9 -5 -5 -12 4 -8 3 -10 -2 -5 -9 9 -10 13 -13 41 0 8 -9 13 -18 12 -10
-2 -21 2 -25 8 -5 8 -8 7 -8 -1 0 -7 -4 -13 -10 -13 -5 0 -9 6 -7 13 1 7 -8
12 -24 12 -14 0 -26 5 -26 12 0 7 4 10 9 7 4 -3 8 0 8 5 0 14 -16 14 -42 0
-11 -6 -18 -7 -15 -2 3 5 -5 22 -19 39 -17 20 -22 23 -17 9 6 -18 5 -19 -11
-6 -9 8 -15 20 -12 27 3 8 0 11 -10 7 -7 -3 -14 -10 -14 -17 0 -6 -4 -5 -9 4
-6 8 -7 18 -4 24 4 5 -1 7 -10 3 -12 -4 -14 -2 -10 11 5 14 3 15 -8 5 -19 -18
-28 -16 -22 6 3 10 0 22 -6 25 -7 5 -8 1 -4 -10 4 -12 3 -15 -5 -10 -7 4 -12
15 -12 24 0 14 -1 14 -12 0 -12 -14 -15 -13 -30 3 -15 16 -15 19 -3 19 8 0 15
4 15 10 0 5 -7 7 -15 4 -8 -4 -15 -1 -15 6 0 6 -4 9 -9 6 -5 -4 -12 0 -14 6
-4 10 -8 9 -16 -2 -10 -13 -11 -13 -12 0 -1 8 -1 19 0 23 1 4 -7 3 -18 -2 -14
-8 -20 -7 -24 4 -3 7 -1 16 6 19 7 2 2 5 -10 5 -21 1 -28 11 -24 34 1 5 -7 7
-16 6 -24 -4 -74 9 -70 19 4 12 -43 53 -64 55 -11 1 -25 14 -32 29 -8 19 -19
28 -34 28 -14 0 -23 6 -23 15 0 9 -7 18 -15 21 -8 4 -12 10 -9 15 3 5 -2 6
-10 3 -11 -4 -16 0 -16 11 0 13 -3 15 -13 7 -10 -9 -19 -7 -35 4 -22 15 -21
40 1 28 7 -4 8 -3 4 2 -8 9 -12 10 -54 12 -14 1 -20 8 -19 20 3 16 -46 48 -66
44 -5 -1 -7 1 -6 6 4 11 -44 62 -54 56 -4 -3 -8 0 -8 7 0 7 -3 9 -7 6 -9 -9
-34 13 -27 24 3 5 -3 9 -14 9 -21 0 -56 33 -45 43 3 4 -1 7 -11 7 -9 0 -14 4
-11 10 3 6 -1 7 -9 4 -12 -5 -16 1 -16 21 0 25 -1 25 -17 10 -15 -16 -17 -15
-31 12 -8 15 -26 39 -39 52 -20 20 -23 21 -17 5 4 -10 4 -16 0 -13 -11 10 -25
69 -16 69 5 0 11 -6 13 -12 4 -10 6 -10 6 0 1 7 -7 16 -16 19 -10 4 -24 13
-31 20 -11 11 -11 13 2 13 9 0 16 -5 16 -12 0 -6 3 -9 6 -6 3 4 0 17 -7 30 -7
12 -12 31 -10 41 2 15 -9 22 -31 18 -5 0 -8 9 -8 20 0 21 1 21 28 5 26 -16 26
-16 -3 8 -16 14 -33 26 -37 26 -5 0 -8 8 -7 18 0 10 3 12 6 5 2 -7 12 -13 21
-13 14 0 14 2 3 9 -12 8 -16 19 -20 65 -1 5 -9 2 -18 -5 -11 -9 -14 -10 -9 -2
4 7 3 20 -2 30 -5 9 -6 29 -2 44 6 20 4 29 -7 33 -11 4 -13 0 -9 -17 6 -22 6
-22 -6 1 -9 19 -9 25 3 33 11 7 11 9 -3 9 -18 0 -22 13 -20 60 1 24 1 24 -12
-4 -14 -31 -28 -24 -16 9 5 13 2 24 -9 33 -14 11 -14 11 0 7 10 -4 16 0 16 11
0 9 -9 19 -19 22 -14 3 -16 7 -7 18 9 11 15 12 28 2 9 -7 6 -1 -6 13 -13 14
-23 37 -23 52 0 20 -4 25 -20 22 -27 -5 -25 4 3 14 l22 9 -25 7 c-22 5 -26 12
-26 41 0 20 -6 39 -12 43 -10 6 -9 11 3 21 9 7 12 16 7 19 -4 3 -19 24 -32 45
-19 31 -20 38 -7 33 11 -4 14 -2 10 9 -3 8 -12 13 -19 10 -17 -7 -25 6 -14 24
5 8 3 19 -7 28 -10 10 -13 29 -10 58 2 28 0 41 -6 37 -6 -4 -8 0 -4 10 3 9 2
19 -3 22 -5 3 -7 13 -4 23 5 13 4 14 -4 4 -7 -11 -10 -10 -16 3 -3 9 -6 25 -6
35 0 10 -9 22 -20 25 -24 8 -25 18 -5 35 8 7 15 18 15 24 0 8 -2 8 -8 -1 -5
-8 -12 -8 -26 3 -18 13 -18 14 -2 14 14 0 11 5 -11 26 -15 15 -21 22 -13 16
10 -7 21 -7 30 -2 15 9 13 11 -12 14 -6 0 -12 7 -14 14 -1 7 0 8 2 3 9 -17 32
11 26 31 -2 10 -8 15 -13 12 -5 -3 -7 -10 -4 -15 4 -5 -1 -9 -11 -9 -14 0 -15
2 -3 18 8 9 19 20 24 24 7 5 6 8 -1 8 -5 0 -16 -6 -23 -13 -10 -10 -11 -8 -5
7 5 13 4 17 -4 12 -6 -3 -14 -1 -18 5 -4 8 -3 9 4 5 15 -9 15 14 2 49 -6 17
-16 25 -24 22 -10 -4 -12 0 -9 14 3 10 10 16 15 12 6 -3 8 0 6 8 -3 8 -13 13
-23 11 -16 -3 -15 0 4 26 20 28 20 31 3 43 -15 13 -16 12 -3 -3 12 -16 11 -18
-2 -18 -16 0 -17 16 -4 38 6 8 1 12 -13 12 -12 0 -18 4 -15 10 3 6 0 10 -7 10
-9 0 -9 3 -2 8 21 14 21 37 1 66 -12 16 -15 26 -7 21 10 -6 12 -4 7 9 -4 10
-7 24 -7 32 0 8 -5 14 -11 14 -5 0 -7 -6 -3 -12 4 -7 3 -10 -1 -5 -5 4 -10 17
-12 30 -2 12 -9 26 -15 32 -8 7 -9 6 -3 -4 5 -9 4 -12 -3 -7 -13 8 -5 59 10
65 7 2 7 6 -1 10 -6 4 -13 18 -16 31 -2 12 -7 25 -11 29 -4 3 -5 -2 -1 -11 3
-9 0 -19 -7 -21 -8 -3 -12 3 -11 16 1 12 -3 28 -9 36 -9 12 -7 12 13 2 13 -7
21 -8 17 -3 -3 6 0 13 6 15 7 3 3 6 -9 6 -12 1 -25 6 -28 11 -4 6 -11 7 -17 4
-6 -4 -6 1 1 14 8 15 8 23 -1 28 -7 4 -8 3 -4 -4 4 -7 2 -12 -3 -12 -19 0 -12
30 7 31 10 0 12 3 5 6 -7 2 -13 12 -13 20 0 9 -8 22 -17 30 -17 14 -17 14 -1
9 10 -3 20 -1 23 5 4 5 1 8 -6 7 -6 -2 -14 3 -16 10 -3 8 1 10 14 6 14 -6 16
-4 6 6 -9 10 -16 10 -25 2 -11 -9 -14 -4 -15 21 -2 24 0 27 6 13 6 -16 9 -17
16 -6 5 8 4 15 -2 17 -6 2 -19 10 -29 18 -16 13 -17 14 -1 9 9 -3 17 -1 17 5
0 6 -6 11 -14 11 -8 0 -17 7 -20 16 -4 10 -2 13 7 8 8 -5 7 -2 -2 9 -11 14
-11 17 0 17 8 1 1 12 -16 26 -20 17 -24 22 -10 17 17 -6 18 -4 8 9 -7 8 -10
17 -7 21 9 8 -6 47 -18 47 -7 0 -7 -4 1 -13 8 -10 7 -14 -3 -14 -9 0 -13 8
-10 20 2 11 -4 27 -14 34 -9 8 -12 12 -6 9 6 -3 20 4 30 17 12 13 13 17 3 9
-18 -14 -30 -7 -22 14 6 15 -7 19 -23 7 -5 -5 -1 0 9 9 11 10 14 18 8 18 -6 0
-10 13 -9 28 1 15 -2 34 -7 42 -5 8 2 6 15 -5 l24 -20 -20 26 c-10 15 -25 24
-31 22 -15 -6 -17 13 -3 22 7 4 7 13 0 24 -6 12 -5 22 1 28 7 7 3 10 -13 8
-19 -2 -23 2 -25 27 -1 16 2 26 7 23 6 -4 10 -2 10 3 0 6 -7 12 -15 16 -9 3
-15 0 -15 -10 0 -8 -5 -12 -10 -9 -7 4 -6 13 1 26 6 11 7 28 3 37 -4 9 -8 23
-10 30 -1 8 -6 17 -10 20 -4 4 -4 -1 -1 -10 4 -11 1 -18 -6 -18 -7 0 -4 -5 6
-11 9 -6 15 -15 11 -20 -13 -21 -32 24 -23 55 12 40 11 55 -1 36 -9 -13 -10
-13 -10 0 0 9 6 22 13 29 10 11 9 13 -5 8 -10 -4 -17 -3 -17 1 3 19 -2 25 -11
12 -8 -12 -10 -10 -10 8 0 15 4 21 12 16 7 -5 9 -2 5 8 -3 9 -3 19 1 22 12 13
10 35 -3 29 -8 -2 -22 0 -32 6 -16 10 -15 11 6 9 13 -2 26 2 28 8 2 6 -8 10
-26 9 -17 -1 -28 2 -25 7 4 5 12 7 20 4 8 -3 14 -1 14 4 0 6 -6 10 -12 11 -10
0 -10 2 0 6 19 8 14 31 -9 38 -14 5 -18 12 -14 23 4 10 7 19 8 22 1 3 -2 5 -8
5 -5 0 -9 -6 -9 -12 1 -7 -2 -10 -7 -8 -4 3 -6 23 -4 45 2 22 0 42 -6 45 -5 4
-7 10 -4 15 3 5 1 11 -4 14 -10 6 -10 -12 0 -29 3 -5 3 -21 -2 -35 l-7 -25 -2
25 c-2 14 -3 33 -3 43 0 9 -4 17 -10 17 -6 0 -2 7 9 15 18 13 18 14 1 15 -11
0 -15 5 -11 11 3 6 1 14 -5 18 -8 5 -6 15 9 33 l20 26 -30 -2 c-17 -1 -35 4
-41 10 -8 10 -6 12 11 9 21 -4 22 -3 5 14 -9 11 -18 28 -20 38 -2 10 -4 19 -5
21 -4 4 -7 22 -9 43 -1 16 -4 19 -13 11 -10 -8 -13 -4 -15 15 -1 19 1 22 8 12
7 -11 9 -10 9 4 0 11 5 16 13 12 6 -4 3 1 -7 9 -17 14 -18 16 -3 16 19 0 23
15 5 26 -7 4 -8 3 -4 -4 4 -7 3 -12 -2 -12 -17 0 -22 13 -10 27 9 11 6 17 -11
29 -12 9 -19 20 -16 25 4 5 0 9 -7 10 -10 0 -10 2 0 6 6 2 12 9 12 15 0 6 -7
7 -16 4 -8 -3 -13 -2 -9 3 3 5 -1 12 -7 15 -7 4 -3 4 10 2 30 -6 28 6 -5 26
-16 10 -22 18 -14 18 11 0 9 5 -5 21 -10 11 -14 20 -9 19 21 -4 27 0 18 13 -6
6 -13 25 -17 41 -6 23 -9 27 -17 15 -6 -10 -9 -7 -9 13 0 14 -4 28 -9 30 -5 2
-5 13 0 27 6 16 13 21 22 15 7 -5 4 -1 -6 9 -11 9 -15 17 -11 17 5 0 1 5 -8
11 -13 7 -15 15 -8 33 7 19 5 23 -8 23 -43 0 -46 2 -28 22 11 12 14 21 7 26
-8 4 -8 12 0 27 8 15 8 19 0 14 -7 -4 -11 1 -11 13 0 10 -4 21 -9 23 -4 2 -11
14 -15 28 -5 17 -4 21 2 11 6 -8 12 -9 16 -3 3 6 -3 13 -14 17 -15 5 -19 12
-15 25 3 10 1 22 -6 25 -8 6 -7 10 2 17 10 7 8 8 -8 5 -15 -3 -20 -1 -16 9 3
8 9 11 14 8 5 -3 9 0 9 5 0 6 -4 11 -10 11 -5 0 -7 8 -4 18 5 14 3 14 -10 -2
-18 -22 -21 -10 -6 28 6 17 6 27 -2 32 -7 5 -8 3 -3 -6 5 -8 4 -11 -3 -6 -6 4
-9 13 -6 21 8 19 -14 57 -28 49 -7 -4 -8 -3 -4 5 4 6 12 8 18 5 6 -4 8 -2 4 4
-3 5 0 13 6 16 7 3 2 4 -12 3 -19 -2 -26 3 -28 22 -2 13 1 28 7 34 9 9 5 16
-11 30 -13 9 -18 17 -13 16 26 -4 28 3 5 16 -14 8 -19 14 -12 15 6 0 12 5 12
11 0 7 -9 9 -22 6 l-23 -6 22 15 c21 15 21 16 2 35 -10 10 -24 19 -29 19 -5 0
-10 5 -10 11 0 5 4 8 9 5 4 -3 17 4 27 17 10 12 12 16 4 9 -16 -13 -31 -16
-29 -4 4 22 -2 42 -11 37 -5 -3 -10 3 -10 14 0 11 4 23 10 26 6 3 7 -1 4 -9
-3 -9 -1 -16 5 -16 20 0 11 36 -12 49 -20 11 -23 20 -22 69 0 52 -2 57 -21 55
-18 -2 -20 2 -16 25 2 15 10 33 16 41 9 12 8 12 -10 3 -18 -9 -25 -8 -35 5
-12 14 -11 15 11 9 l25 -7 -23 20 c-12 10 -21 28 -20 38 3 38 -2 54 -14 47
-10 -6 -10 -4 -2 7 5 8 9 20 8 27 -1 6 -2 17 -3 23 0 5 -7 7 -13 4 -7 -4 -4 1
7 10 19 16 19 16 -10 11 -16 -4 -24 -3 -17 0 6 3 12 10 12 15 0 6 -4 7 -10 4
-11 -7 -14 5 -11 48 0 15 -3 27 -9 27 -5 0 -10 5 -10 12 0 6 10 3 21 -8 l22
-19 -13 25 c-7 14 -19 32 -26 41 -12 13 -12 16 1 16 8 0 15 -5 15 -10 0 -6 3
-7 7 -4 8 8 -31 47 -47 47 -5 0 -9 6 -7 13 1 6 -4 11 -11 9 -8 -1 -11 2 -7 8
4 6 13 9 21 6 7 -3 16 -1 19 5 4 5 3 9 -2 8 -21 -4 -34 2 -30 14 2 6 0 20 -5
31 -8 14 -7 17 4 10 10 -6 11 -5 1 8 -7 8 -10 17 -7 20 3 3 0 9 -7 14 -8 5
-10 3 -4 -7 5 -8 4 -11 -1 -6 -14 13 -17 100 -3 91 8 -5 9 -3 5 5 -5 7 -14 10
-21 7 -20 -7 -24 17 -6 31 13 10 14 11 1 10 -8 -2 -21 -7 -29 -11 -11 -7 -10
-3 2 15 21 29 22 43 2 36 -8 -4 -17 -2 -20 3 -3 5 5 12 17 16 l22 7 -22 17
c-13 11 -18 20 -10 22 8 3 6 9 -4 19 -15 13 -15 16 0 33 16 18 16 19 -2 13
-15 -6 -17 -3 -13 12 3 14 -2 21 -17 25 -21 6 -21 7 4 22 25 15 25 15 1 8 -18
-5 -22 -3 -15 7 5 8 9 20 10 27 2 10 -1 11 -12 1 -9 -8 -14 -8 -14 -1 0 6 8
16 18 21 9 6 12 11 6 11 -17 0 -25 43 -11 53 8 6 4 7 -10 4 -15 -3 -23 1 -26
14 -3 11 -2 21 2 24 10 6 7 63 -4 72 -4 5 -5 2 -1 -4 5 -9 2 -11 -9 -7 -12 5
-13 9 -4 20 6 8 8 14 3 14 -5 0 -1 5 8 11 15 8 16 13 6 29 -7 10 -16 16 -22
13 -5 -4 -7 1 -3 10 3 9 1 19 -5 23 -6 4 -8 3 -4 -4 3 -6 2 -13 -3 -16 -7 -5
-8 22 -1 32 8 8 4 29 -7 40 -7 7 -13 21 -14 30 0 9 -2 28 -5 42 -3 17 -1 20 5
12 6 -10 10 -8 14 9 4 13 4 25 2 28 -3 2 -5 -1 -5 -7 0 -7 -5 -12 -12 -12 -6
0 -8 3 -5 6 4 4 -2 19 -13 34 -11 16 -20 32 -20 37 0 4 5 1 10 -7 8 -13 10
-12 10 3 0 9 -7 17 -16 17 -13 0 -14 3 -5 14 9 11 9 16 0 22 -9 5 -7 11 6 21
17 12 17 13 2 13 -9 0 -17 6 -17 13 0 8 -4 7 -10 -3 -5 -8 -10 -10 -10 -5 0 6
6 17 12 23 10 10 10 15 -2 22 -14 9 -7 15 14 11 5 -1 3 5 -4 14 -7 9 -19 14
-27 11 -11 -4 -11 -1 -3 15 27 50 21 64 -28 62 -9 -1 -10 2 -2 12 6 8 17 12
25 9 7 -3 16 0 21 7 4 7 3 10 -4 6 -14 -10 -39 1 -46 20 -5 13 -4 14 9 3 13
-11 14 -10 9 4 -3 9 -10 16 -16 16 -5 0 -6 5 -3 10 5 8 12 7 23 -2 15 -11 15
-11 5 3 -7 9 -10 19 -6 22 3 4 -3 7 -15 7 -14 0 -22 6 -22 18 0 14 2 15 10 2
6 -9 10 -10 10 -3 0 6 -5 15 -11 18 -6 4 -8 13 -5 21 3 8 0 11 -10 7 -17 -6
-19 13 -1 20 8 4 5 11 -10 24 -19 15 -20 21 -9 35 7 10 15 17 17 15 2 -1 -2 4
-10 11 -11 8 -11 12 -2 12 7 0 9 5 6 11 -4 6 -14 8 -22 5 -8 -4 -11 -1 -8 5 4
6 13 8 21 5 8 -3 14 -1 14 4 0 9 -14 14 -32 11 -4 0 2 16 13 36 15 27 17 33 5
24 -15 -12 -20 -8 -17 12 0 4 -7 7 -16 7 -10 0 -14 4 -8 8 13 9 13 87 1 99 -5
5 -6 3 -2 -4 4 -7 5 -13 2 -13 -3 0 -10 10 -17 22 -9 17 -9 20 3 15 9 -3 15 1
15 9 0 9 -6 13 -15 9 -13 -5 -13 -3 -1 12 11 13 11 15 1 9 -10 -6 -13 -2 -10
14 2 14 -3 25 -12 27 -13 4 -13 3 0 -6 10 -7 11 -11 3 -11 -7 0 -17 10 -24 21
-7 13 -7 19 -1 15 14 -9 25 11 15 27 -4 6 -6 23 -4 36 1 13 -1 21 -7 17 -5 -3
-15 1 -21 8 -14 17 2 32 21 20 7 -5 8 -3 4 5 -5 7 -18 17 -30 22 -21 9 -21 10
2 5 12 -2 22 0 22 5 0 5 -8 9 -17 9 -15 0 -16 2 -3 9 8 6 18 7 24 4 5 -3 6 -1
2 5 -4 6 -13 9 -20 6 -15 -6 -31 29 -21 45 3 5 1 12 -5 16 -5 3 -10 1 -10 -6
0 -7 -3 -9 -6 -6 -4 4 1 17 9 31 16 24 16 26 -7 44 -24 18 -24 19 -5 33 17 12
17 14 3 19 -8 3 -15 8 -14 10 0 3 -6 22 -14 42 -22 51 -20 59 4 23 14 -21 20
-25 20 -12 0 9 -5 17 -10 17 -6 0 -9 3 -9 8 4 22 -3 32 -23 32 l-23 1 24 13
23 13 -23 7 c-14 4 -19 9 -11 13 6 2 10 9 6 14 -3 5 -1 9 4 9 5 0 9 7 9 15 0
8 -4 15 -9 15 -5 0 -6 10 -3 23 4 15 3 18 -3 9 -8 -11 -10 -11 -15 1 -3 8 0
20 6 26 9 9 8 10 -7 5 -16 -6 -18 -4 -14 14 4 13 -1 27 -12 37 -15 13 -17 22
-9 41 6 18 5 31 -7 49 -10 16 -14 34 -9 54 4 18 2 32 -6 37 -8 5 -9 3 -4 -6 6
-9 4 -11 -5 -5 -10 6 -10 11 3 20 25 18 20 28 -10 21 -28 -5 -28 -5 2 9 26 12
27 14 8 15 -20 0 -22 5 -19 49 2 45 0 49 -16 40 -13 -7 -16 -6 -12 5 3 8 0 17
-6 21 -8 5 -6 12 5 25 10 11 15 25 12 32 -3 8 -6 6 -6 -6 -1 -15 -4 -16 -16
-6 -14 12 -14 15 1 31 19 21 5 26 -15 7 -10 -11 -11 -10 -6 5 4 9 11 17 16 17
5 0 9 5 9 11 0 6 -7 9 -15 5 -18 -6 -19 7 -4 36 8 15 8 19 0 14 -7 -5 -11 1
-11 14 0 16 4 20 15 16 12 -4 13 -2 7 12 -5 9 -7 24 -5 32 4 12 3 12 -5 2 -7
-11 -11 -9 -15 8 -3 12 -9 20 -14 17 -4 -3 -8 25 -8 61 -1 61 -3 67 -20 64
-20 -3 -20 -3 0 12 20 16 20 16 -4 35 -14 11 -21 23 -16 30 4 7 -1 21 -10 31
-16 18 -16 20 -1 26 9 3 13 10 10 16 -3 5 -11 5 -19 -2 -10 -9 -13 -7 -10 7 2
10 4 19 5 21 2 1 3 5 4 10 1 4 5 12 9 19 5 7 1 9 -12 6 -10 -3 -22 1 -27 8 -5
9 -2 11 9 6 11 -4 15 0 14 14 -1 11 -6 18 -12 15 -6 -2 -11 4 -12 13 0 9 -3
26 -6 38 -3 13 -2 25 3 28 5 3 7 -3 5 -13 -2 -10 1 -25 5 -32 6 -9 7 -1 5 20
-2 19 -4 37 -5 40 -1 3 -2 8 -1 12 0 4 -7 4 -17 1 -14 -6 -15 -4 -4 9 10 12
10 17 1 20 -9 3 -9 10 1 27 11 21 10 23 -4 18 -8 -3 -18 -2 -21 3 -7 12 6 41
16 34 5 -3 9 0 9 7 0 6 -8 9 -19 6 -14 -3 -18 -1 -14 9 3 9 -2 14 -13 15 -17
1 -17 2 -2 6 17 4 17 6 0 31 -16 25 -16 26 3 19 18 -7 19 -6 3 6 -10 8 -15 17
-11 20 3 4 0 7 -8 7 -10 1 -9 4 4 11 13 8 15 15 7 28 -5 10 -6 21 -3 25 3 3
-2 16 -13 28 -13 14 -14 19 -4 14 9 -4 8 -2 -2 7 -19 15 -25 32 -8 22 6 -3 10
-1 10 4 0 6 -5 11 -11 11 -5 0 -7 5 -4 10 3 6 1 10 -4 10 -6 0 -11 5 -11 11 0
5 6 7 13 3 10 -6 10 -4 0 7 -18 18 -16 29 5 29 15 1 14 2 -3 13 -13 7 -19 19
-17 31 2 10 0 16 -6 12 -5 -3 -9 6 -9 19 0 20 2 23 13 14 10 -8 11 -6 1 14 -7
16 -17 23 -27 19 -12 -5 -13 -3 -3 9 9 11 8 20 -2 39 -7 13 -11 30 -8 37 3 8
2 13 -3 11 -10 -3 -14 5 -14 30 0 15 2 15 11 2 9 -13 10 -13 6 0 -2 8 -12 14
-21 14 -16 -2 -16 -1 0 17 15 17 15 19 2 14 -9 -4 -19 -2 -23 4 -3 6 -1 11 4
11 16 0 13 27 -5 55 -9 14 -12 25 -6 25 5 0 13 7 16 16 5 14 4 15 -9 4 -13
-11 -14 -10 -9 5 5 13 4 16 -5 11 -12 -8 -11 15 2 25 4 3 -2 15 -12 26 -11 11
-18 22 -16 24 2 2 5 19 8 37 4 24 2 32 -10 32 -10 0 -14 6 -10 20 3 13 0 20
-10 20 -12 0 -12 2 1 16 20 20 20 28 1 20 -15 -6 -19 3 -16 41 1 12 -6 26 -16
33 -15 9 -14 10 7 4 22 -6 23 -5 12 9 -8 9 -11 21 -7 27 3 5 0 13 -9 16 -19 7
-28 32 -14 40 6 4 8 3 4 -4 -3 -6 -2 -13 4 -17 6 -4 10 8 10 29 0 35 -20 57
-48 50 -7 -1 -8 0 -2 3 5 2 8 9 4 14 -3 5 -1 9 5 9 5 0 12 -6 14 -12 4 -10 6
-10 6 0 1 7 -5 15 -13 18 -8 3 -12 16 -10 32 2 19 -5 34 -23 50 -14 12 -22 22
-17 22 6 0 16 -6 23 -12 9 -9 8 -2 -3 19 -9 18 -16 40 -15 50 0 16 1 16 9 -2
8 -17 9 -17 7 7 -1 15 -4 25 -8 22 -4 -2 -10 0 -14 6 -4 6 -12 7 -18 3 -7 -4
-6 1 2 11 11 13 16 14 22 4 6 -9 9 -7 9 8 0 21 -22 49 -31 39 -3 -2 -5 4 -5
15 0 10 3 17 7 14 13 -7 20 29 8 40 -9 8 -10 8 -5 -1 8 -15 -3 -17 -23 -4 -11
7 -10 11 5 19 18 11 18 11 -1 26 -11 8 -15 16 -9 16 16 0 13 30 -3 30 -8 0
-11 -4 -8 -10 3 -5 2 -10 -3 -10 -6 0 -13 7 -16 16 -3 8 -2 12 4 9 6 -4 10 12
10 40 0 28 -4 44 -10 40 -16 -10 -12 6 8 29 16 20 16 20 -1 7 -9 -8 -21 -11
-24 -7 -4 4 -1 11 7 16 12 8 11 10 -5 11 -11 0 -14 3 -7 6 10 4 10 8 1 19 -9
11 -9 14 0 14 7 0 9 5 6 10 -4 6 -12 7 -18 3 -7 -4 -6 1 2 11 12 15 12 19 1
26 -17 10 -24 93 -7 84 7 -3 5 0 -4 8 -9 7 -14 19 -11 27 3 10 0 11 -9 5 -12
-6 -12 -5 -1 8 10 13 10 18 1 24 -8 5 -9 3 -4 -6 5 -9 4 -11 -4 -6 -6 4 -9 11
-6 16 3 4 -2 25 -11 45 -13 33 -13 37 -1 32 13 -5 14 0 6 25 -4 17 -16 39 -24
48 -11 12 -13 20 -6 25 19 11 13 35 -6 28 -16 -6 -16 -5 -4 10 7 9 9 17 4 17
-13 0 -30 41 -25 63 2 10 8 14 15 10 8 -5 8 -2 0 9 -7 8 -9 19 -5 23 4 5 0 6
-10 2 -17 -6 -19 8 -4 32 7 11 5 13 -8 8 -12 -5 -15 -3 -9 6 4 6 9 22 10 34 3
17 -1 20 -19 16 -13 -3 -19 -1 -13 4 13 10 16 43 3 43 -5 0 -6 15 -2 36 6 30
4 35 -11 32 -21 -4 -29 28 -9 36 17 6 8 32 -20 60 -19 19 -19 21 -3 24 13 3
16 9 11 25 -4 12 -7 27 -7 34 0 7 -5 11 -10 10 -5 -1 -11 8 -13 21 -2 13 0 21
5 18 5 -3 7 3 4 14 -3 11 -13 20 -22 21 -12 0 -11 2 4 9 15 7 16 9 4 9 -9 1
-19 12 -21 26 -3 13 -2 22 3 20 19 -13 17 15 -3 29 -12 9 -18 16 -13 16 5 0 4
5 -3 12 -7 7 -12 19 -11 27 0 12 3 10 8 -3 7 -19 8 -19 13 2 4 12 2 22 -4 22
-6 0 -8 6 -5 13 3 8 1 20 -4 28 -8 12 -10 12 -19 -1 -5 -8 -10 -11 -10 -7 0
10 31 60 45 70 5 5 1 6 -11 3 -18 -6 -20 -3 -16 23 3 22 8 28 23 24 22 -6 25
7 7 25 -10 10 -10 17 -1 31 10 16 9 22 -5 33 -16 12 -16 11 -2 -7 14 -18 14
-19 -2 -7 -18 14 -16 45 3 68 6 8 15 12 18 9 4 -2 8 2 8 10 0 8 -5 11 -10 8
-6 -4 -8 5 -5 21 3 14 2 26 -1 26 -4 0 -7 9 -8 20 -1 13 2 18 9 14 7 -4 8 -2
4 5 -6 9 -11 9 -21 1 -11 -9 -12 -7 -8 10 4 15 12 20 24 17 12 -3 17 1 16 13
-1 10 -5 16 -9 14 -4 -3 -8 0 -8 5 0 6 8 12 18 12 16 1 16 2 0 6 -16 4 -20 16
-20 58 0 30 2 35 20 36 15 1 15 2 -1 6 -18 5 -18 5 0 20 10 8 13 12 7 9 -7 -3
-14 3 -17 15 -4 16 -3 18 9 8 11 -9 14 -8 14 5 0 9 -5 16 -12 16 -9 0 -9 3 0
12 7 7 12 17 12 22 0 6 -5 4 -10 -4 -8 -12 -10 -9 -7 12 1 15 6 30 9 34 4 3 3
17 -3 30 -5 14 -8 28 -8 32 1 4 0 9 -1 12 -8 21 -7 39 3 33 6 -4 8 0 4 10 -3
9 -3 19 2 21 11 7 10 -26 0 -40 -6 -7 -3 -16 6 -24 17 -14 21 -35 5 -25 -15 9
-12 -1 4 -14 12 -10 14 -7 10 16 -3 15 -6 42 -7 60 -1 17 -5 35 -10 39 -4 4 0
18 8 30 13 20 13 22 1 18 -15 -6 -15 6 -1 39 6 15 10 16 17 5 7 -9 8 -8 4 6
-4 11 -1 23 6 28 10 6 8 8 -5 8 -9 0 -16 6 -15 13 2 6 -3 11 -10 9 -8 -1 -11
2 -7 8 3 6 10 8 14 6 4 -3 13 5 21 17 12 20 11 21 -2 9 -13 -10 -17 -10 -22 3
-4 11 -2 14 7 9 8 -5 7 -2 -2 9 -10 13 -10 17 -1 17 10 0 10 3 0 15 -10 12 -9
16 4 21 9 3 16 10 16 16 0 5 -4 7 -9 3 -5 -3 -13 0 -17 6 -4 7 -3 9 3 6 6 -4
13 0 17 8 3 10 -1 15 -12 16 -16 1 -16 2 0 6 20 5 33 37 22 55 -6 9 -3 9 9 -1
10 -8 17 -9 17 -3 0 6 -9 14 -20 17 -21 7 -28 35 -9 35 5 0 7 -4 4 -10 -3 -5
-1 -10 4 -10 14 0 14 13 0 27 -8 8 -7 13 2 18 8 6 10 4 4 -6 -8 -12 -6 -12 8
0 9 7 14 17 11 23 -4 5 -11 5 -18 -1 -7 -6 -16 -8 -19 -4 -10 10 14 34 27 26
6 -3 8 -3 4 2 -4 4 -2 15 5 23 10 13 8 14 -13 8 -14 -4 -20 -4 -15 1 16 12 33
56 28 71 -4 10 -8 10 -21 0 -15 -12 -16 -11 -4 4 8 9 11 22 7 28 -3 5 -1 10 4
10 12 0 15 36 4 43 -5 2 -3 2 4 1 7 -2 10 3 6 13 -5 13 -2 15 13 10 19 -7 19
-7 0 8 -11 8 -17 16 -13 16 4 1 11 2 16 3 5 0 13 5 18 10 4 5 3 6 -3 3 -7 -4
-14 3 -17 19 -3 18 -1 24 9 20 8 -3 11 0 7 10 -3 7 -1 14 5 14 8 0 10 40 2 48
-7 7 -5 29 4 41 8 11 8 13 0 8 -7 -4 -14 0 -17 8 -4 10 -1 12 11 8 13 -5 15
-4 6 8 -5 8 -9 20 -8 27 1 6 2 19 3 28 0 8 5 13 10 10 5 -4 8 2 6 11 -2 10 -4
18 -5 18 -6 0 -6 36 0 40 4 3 6 14 3 25 -3 11 -1 20 5 20 12 0 10 26 -3 37 -4
4 -5 3 -1 -4 3 -6 2 -14 -3 -17 -5 -4 -8 2 -6 11 2 10 4 18 5 18 7 0 7 42 0
55 -11 21 18 83 36 76 8 -3 11 0 8 9 -3 8 -9 14 -12 13 -17 -2 -23 3 -15 15
11 17 13 38 3 32 -15 -9 -23 16 -10 28 10 9 11 9 6 0 -4 -8 -1 -13 9 -13 13 0
14 4 4 21 -10 20 -9 21 12 16 20 -5 22 -4 8 6 -9 7 -19 23 -23 37 l-7 25 15
-25 c18 -30 21 -18 4 13 -18 33 -19 49 -2 43 9 -3 12 -1 9 4 -3 6 -1 10 4 10
6 0 11 -5 11 -12 0 -6 3 -8 7 -5 3 4 -3 16 -15 27 -12 12 -21 28 -21 38 1 16
2 16 6 0 2 -10 11 -18 19 -18 19 0 18 49 -1 56 -8 4 -15 13 -15 21 0 13 3 13
16 2 13 -11 15 -11 14 2 -3 22 11 59 21 54 4 -3 13 4 19 15 9 16 8 20 -7 21
-16 1 -16 2 -1 6 11 3 15 10 11 20 -4 11 -2 14 5 9 7 -4 12 -1 12 9 0 10 -5
13 -12 9 -7 -4 -11 -5 -8 -1 3 3 10 6 15 7 23 4 45 22 40 31 -4 5 -11 6 -17 3
-6 -4 -8 -2 -5 4 4 5 17 8 30 6 12 -2 16 -2 10 2 -10 4 -10 8 0 18 24 25 53
36 65 24 7 -7 13 -4 21 11 7 12 8 21 4 22 -4 1 3 4 17 8 15 4 28 3 32 -3 5 -6
8 -2 8 9 0 13 7 21 18 21 25 1 46 8 53 17 5 7 24 13 51 16 4 1 13 7 20 15 8 7
28 21 46 30 17 9 36 25 42 36 6 11 19 20 28 20 11 0 18 8 18 19 0 11 -5 19
-11 18 -5 -1 -9 4 -7 11 2 12 -21 43 -33 42 -3 0 -5 3 -6 8 0 4 -6 14 -12 22
-10 13 -10 13 5 1 10 -7 15 -18 11 -24 -3 -6 -1 -7 5 -3 7 4 12 14 12 23 0 9
3 13 7 10 12 -12 31 13 27 36 l-5 22 10 -22 c6 -13 16 -23 23 -22 10 0 10 2 0
6 -9 3 -2 13 20 29 19 14 34 20 36 14 3 -8 8 -7 18 1 8 6 14 8 14 3 0 -5 5 -2
10 6 7 10 10 11 10 2 0 -8 15 -4 46 13 27 15 54 23 65 20 14 -5 19 -2 19 11 0
14 2 15 17 3 11 -10 14 -10 9 -1 -5 8 -1 12 11 13 10 0 26 2 36 5 9 2 25 6 35
8 9 3 19 5 22 6 3 1 9 1 15 0 5 -1 6 2 2 6 -4 4 -13 9 -20 10 -65 10 -394 71
-513 95 -82 16 -161 32 -175 34 -20 4 -170 34 -244 49 -167 34 -832 197 -985
241 -538 155 -1002 314 -1277 436 -24 10 -63 28 -88 39 -25 11 -47 20 -51 20
-6 0 -139 63 -294 138 -89 44 -194 99 -329 174 -62 34 -199 121 -218 137 -7 6
-15 11 -17 11 -42 0 -382 324 -455 433 -8 12 -32 45 -53 73 -36 48 -57 84
-129 224 -39 76 -59 158 -66 268 -8 121 9 213 59 321 107 234 319 415 733 626
969 492 2996 874 5650 1065 826 59 1931 104 2654 109 179 1 327 4 330 6 7 8
638 5 1226 -5z m-6775 -6034 c0 -3 -4 -8 -10 -11 -5 -3 -10 -1 -10 4 0 6 5 11
10 11 6 0 10 -2 10 -4z m-60 -465 c0 -5 -7 -12 -16 -15 -14 -5 -15 -4 -4 9 14
17 20 19 20 6z m-55 -1341 c3 -6 -1 -7 -9 -4 -18 7 -21 14 -7 14 6 0 13 -4 16
-10z m175 -785 c0 -5 -5 -3 -10 5 -5 8 -10 20 -10 25 0 6 5 3 10 -5 5 -8 10
-19 10 -25z m30 -186 c0 -5 -4 -9 -10 -9 -5 0 -10 7 -10 16 0 8 5 12 10 9 6
-3 10 -10 10 -16z m200 -779 c0 -5 -8 -10 -17 -10 -15 0 -16 2 -3 10 19 12 20
12 20 0z m-3 -102 c-3 -8 -6 -5 -6 6 -1 11 2 17 5 13 3 -3 4 -12 1 -19z m150
-670 c-3 -7 -5 -2 -5 12 0 14 2 19 5 13 2 -7 2 -19 0 -25z m66 -235 c-3 -7 -6
-13 -8 -13 -2 0 -5 6 -8 13 -3 8 1 14 8 14 7 0 11 -6 8 -14z m422 -1813 c3 -5
2 -10 -4 -10 -5 0 -13 5 -16 10 -3 6 -2 10 4 10 5 0 13 -4 16 -10z m266 -1263
c-10 -9 -11 -8 -5 6 3 10 9 15 12 12 3 -3 0 -11 -7 -18z m84 -197 c3 -5 1 -10
-4 -10 -6 0 -11 5 -11 10 0 6 2 10 4 10 3 0 8 -4 11 -10z m345 -1270 c0 -5 -5
-10 -11 -10 -5 0 -7 5 -4 10 3 6 8 10 11 10 2 0 4 -4 4 -10z m220 -810 c0 -5
-2 -10 -4 -10 -3 0 -8 5 -11 10 -3 6 -1 10 4 10 6 0 11 -4 11 -10z m166 -537
c-7 -7 -26 7 -26 19 0 6 6 6 15 -2 9 -7 13 -15 11 -17z m94 -267 c0 -2 -7 -7
-16 -10 -8 -3 -12 -2 -9 4 6 10 25 14 25 6z m31 -259 c-10 -9 -11 -8 -5 6 3
10 9 15 12 12 3 -3 0 -11 -7 -18z m44 -7 c3 -5 2 -10 -4 -10 -5 0 -13 5 -16
10 -3 6 -2 10 4 10 5 0 13 -4 16 -10z m128 -457 c-4 -11 -3 -14 5 -9 19 11 14
1 -8 -19 -18 -17 -20 -17 -14 -2 3 10 1 17 -5 17 -8 0 -8 6 1 19 14 23 30 18
21 -6z m307 -977 c9 -12 8 -15 -8 -13 -12 0 -18 6 -15 14 6 16 8 16 23 -1z m7
-138 c-3 -8 -6 -5 -6 6 -1 11 2 17 5 13 3 -3 4 -12 1 -19z m52 -121 c8 -10 7
-14 -2 -14 -8 0 -14 6 -14 14 0 7 1 13 2 13 2 0 8 -6 14 -13z m99 -338 c-3 -8
-7 -3 -11 10 -4 17 -3 21 5 13 5 -5 8 -16 6 -23z m20 -34 c0 -14 -4 -28 -9
-31 -5 -3 -6 2 -3 10 4 9 1 16 -6 16 -10 0 -10 3 0 15 16 20 18 19 18 -10z
m69 -271 c-3 -3 -12 -4 -19 -1 -8 3 -5 6 6 6 11 1 17 -2 13 -5z m84 -209 c5 4
9 4 9 1 0 -3 -5 -8 -10 -11 -12 -7 -30 36 -21 50 3 6 7 -2 9 -18 2 -15 8 -25
13 -22z m104 -343 c-3 -3 -11 0 -18 7 -9 10 -8 11 6 5 10 -3 15 -9 12 -12z
m15 -81 c0 -5 -8 -15 -17 -22 -16 -12 -17 -12 -6 2 7 9 10 19 6 22 -3 4 -1 7
5 7 7 0 12 -4 12 -9z m40 -40 c0 -6 -4 -12 -8 -15 -5 -3 -9 1 -9 9 0 8 4 15 9
15 4 0 8 -4 8 -9z m460 -495 c0 -2 -7 -7 -16 -10 -8 -3 -12 -2 -9 4 6 10 25
14 25 6z m120 -86 c0 -5 -2 -10 -4 -10 -3 0 -8 5 -11 10 -3 6 -1 10 4 10 6 0
11 -4 11 -10z m895 -570 c3 -5 1 -10 -4 -10 -6 0 -11 5 -11 10 0 6 2 10 4 10
3 0 8 -4 11 -10z m225 -124 c0 -3 -4 -8 -10 -11 -5 -3 -10 -1 -10 4 0 6 5 11
10 11 6 0 10 -2 10 -4z m185 -96 c3 -6 -1 -7 -9 -4 -18 7 -21 14 -7 14 6 0 13
-4 16 -10z m420 -148 c-3 -3 -11 0 -18 7 -9 10 -8 11 6 5 10 -3 15 -9 12 -12z
m2901 -4 c3 -4 -1 -5 -10 -4 -8 1 -18 5 -22 8 -3 4 1 5 10 4 8 -1 18 -5 22 -8z
m-139 -55 c0 -9 -4 -10 -14 -2 -7 6 -13 12 -13 14 0 1 6 2 13 2 8 0 14 -6 14
-14z m-622 -142 c3 -5 2 -12 -3 -15 -5 -3 -9 1 -9 9 0 17 3 19 12 6z m-531
-59 c3 -5 -1 -9 -9 -9 -8 0 -12 4 -9 9 3 4 7 8 9 8 2 0 6 -4 9 -8z"/>
<path d="M14060 25099 c0 -5 5 -7 10 -4 6 3 10 8 10 11 0 2 -4 4 -10 4 -5 0
-10 -5 -10 -11z"/>
<path d="M13828 24863 c7 -3 16 -2 19 1 4 3 -2 6 -13 5 -11 0 -14 -3 -6 -6z"/>
<path d="M13257 24073 c-11 -10 -8 -20 7 -26 10 -4 12 0 9 14 -6 21 -7 22 -16
12z"/>
<path d="M13246 24025 c4 -8 8 -15 10 -15 2 0 4 7 4 15 0 8 -4 15 -10 15 -5 0
-7 -7 -4 -15z"/>
<path d="M13243 23855 c0 -8 4 -12 9 -9 5 3 6 10 3 15 -9 13 -12 11 -12 -6z"/>
<path d="M13190 23435 c0 -8 4 -15 8 -15 5 0 9 7 9 15 0 8 -4 15 -9 15 -4 0
-8 -7 -8 -15z"/>
<path d="M13115 22482 c-10 -7 -18 -32 -10 -32 2 0 9 9 15 20 12 22 11 24 -5
12z"/>
<path d="M13119 22433 c-13 -16 -12 -17 4 -4 9 7 17 15 17 17 0 8 -8 3 -21
-13z"/>
<path d="M13086 22194 c-5 -14 -4 -15 9 -4 17 14 19 20 6 20 -5 0 -12 -7 -15
-16z"/>
<path d="M13290 20990 c0 -5 5 -10 11 -10 5 0 7 5 4 10 -3 6 -8 10 -11 10 -2
0 -4 -4 -4 -10z"/>
<path d="M13850 18589 c0 -5 5 -7 10 -4 6 3 10 8 10 11 0 2 -4 4 -10 4 -5 0
-10 -5 -10 -11z"/>
<path d="M13910 18315 c0 -8 2 -15 4 -15 2 0 6 7 10 15 3 8 1 15 -4 15 -6 0
-10 -7 -10 -15z"/>
<path d="M14020 17780 c0 -5 5 -10 11 -10 5 0 7 5 4 10 -3 6 -8 10 -11 10 -2
0 -4 -4 -4 -10z"/>
<path d="M14044 17689 c-3 -6 -1 -16 4 -21 8 -8 11 -5 9 11 -1 24 -3 25 -13
10z"/>
<path d="M14450 15960 c0 -5 5 -10 11 -10 5 0 7 5 4 10 -3 6 -8 10 -11 10 -2
0 -4 -4 -4 -10z"/>
<path d="M14650 15205 c-7 -9 -8 -15 -2 -15 5 0 12 7 16 15 3 8 4 15 2 15 -2
0 -9 -7 -16 -15z"/>
<path d="M14680 15069 c0 -5 5 -7 10 -4 6 3 10 8 10 11 0 2 -4 4 -10 4 -5 0
-10 -5 -10 -11z"/>
<path d="M14723 14855 c0 -8 4 -15 8 -15 4 0 9 7 13 15 3 9 0 15 -8 15 -7 0
-13 -7 -13 -15z"/>
<path d="M14820 14586 c0 -2 8 -10 18 -17 15 -13 16 -12 3 4 -13 16 -21 21
-21 13z"/>
<path d="M14905 14291 c-3 -5 -1 -12 5 -16 5 -3 10 1 10 9 0 18 -6 21 -15 7z"/>
<path d="M15045 13820 c-3 -5 -1 -10 4 -10 6 0 11 5 11 10 0 6 -2 10 -4 10 -3
0 -8 -4 -11 -10z"/>
<path d="M15089 13633 c-13 -16 -12 -17 4 -4 16 13 21 21 13 21 -2 0 -10 -8
-17 -17z"/>
<path d="M15136 13477 c3 -10 9 -15 12 -12 3 3 0 11 -7 18 -10 9 -11 8 -5 -6z"/>
<path d="M15191 13344 c0 -11 3 -14 6 -6 3 7 2 16 -1 19 -3 4 -6 -2 -5 -13z"/>
<path d="M15256 13085 c4 -8 10 -15 15 -15 4 0 6 7 3 15 -4 8 -10 15 -15 15
-4 0 -6 -7 -3 -15z"/>
<path d="M15270 13018 c0 -5 7 -11 15 -14 8 -4 12 -11 8 -18 -4 -6 1 -5 10 3
20 16 22 22 5 19 -7 -2 -12 2 -11 8 1 6 -5 11 -13 11 -7 0 -14 -4 -14 -9z"/>
<path d="M15470 12424 c0 -8 5 -12 10 -9 6 4 8 11 5 16 -9 14 -15 11 -15 -7z"/>
<path d="M15592 11979 c2 -7 10 -15 17 -17 8 -3 12 1 9 9 -2 7 -10 15 -17 17
-8 3 -12 -1 -9 -9z"/>
<path d="M15710 11626 c0 -2 7 -7 16 -10 8 -3 12 -2 9 4 -6 10 -25 14 -25 6z"/>
<path d="M16040 10519 c0 -11 4 -18 10 -14 5 3 7 12 3 20 -7 21 -13 19 -13 -6z"/>
<path d="M16215 9970 c-3 -5 -1 -10 4 -10 6 0 11 5 11 10 0 6 -2 10 -4 10 -3
0 -8 -4 -11 -10z"/>
<path d="M17505 8650 c3 -5 8 -10 11 -10 2 0 4 5 4 10 0 6 -5 10 -11 10 -5 0
-7 -4 -4 -10z"/>
<path d="M17870 8460 c18 -12 30 -13 30 -2 0 4 -10 9 -22 9 -18 2 -20 0 -8 -7z"/>
<path d="M19286 7982 c-3 -4 4 -9 15 -9 23 -2 25 3 4 10 -8 4 -16 3 -19 -1z"/>
<path d="M19380 7950 c-13 -8 -12 -10 3 -10 9 0 17 5 17 10 0 12 -1 12 -20 0z"/>
<path d="M19535 7930 c-3 -5 1 -10 9 -10 9 0 16 5 16 10 0 6 -4 10 -9 10 -6 0
-13 -4 -16 -10z"/>
<path d="M19960 7889 c0 -5 5 -7 10 -4 6 3 10 8 10 11 0 2 -4 4 -10 4 -5 0
-10 -5 -10 -11z"/>
</g>
</svg>
